<?xml version="1.0" encoding="UTF-8"?>
<!-- Created with Inkscape (http://www.inkscape.org/) -->
<svg width="79.685mm" height="8.4934mm" version="1.1" viewBox="0 0 79.685 8.4934" xmlns="http://www.w3.org/2000/svg">
 <g transform="translate(-58.456 -78.313)">
  <path d="m60.394 86.444c-1.887-2.2042-2.4742-4.1113-1.4148-4.5946 0.25811-0.11775 0.51578-0.15957 2.3476-0.38101 5.4752-0.66186 11.477-1.0501 19.034-1.2313 3.7649-0.09029 11.347-0.13971 32.599-0.2125 13.518-0.0463 18.01-0.10937 21.635-0.3038 1.6956-0.09094 2.2944-0.1813 2.7333-0.41249 0.33294-0.17539 0.4745-0.38377 0.50827-0.74823 0.0382-0.41266 0.10624-0.31191 0.21676 0.32149 0.0585 0.33429 0.0859 1.1006 0.0867 2.4125l1e-3 1.9226-0.1952 0.21166c-0.34209 0.37093-0.95677 0.5418-2.2379 0.62207-0.68965 0.04321-7.0602 0.02439-15.591-0.04607-6.714-0.05546-22.335-0.05607-26.027-1e-3 -13.308 0.19842-20.862 0.57205-27.986 1.3842-2.6752 0.305-2.9463 0.33916-3.6201 0.45618-1.0248 0.17798-1.4908 0.38961-1.6795 0.76271l-0.10089 0.19946-0.30985-0.36193z" fill="#faff99" fill-opacity=".8" stroke-width=".047911"/>
 </g>
</svg>
