<?xml version="1.0" encoding="UTF-8"?>
<svg width="35.719mm" height="1.8521mm" version="1.1" viewBox="0 0 35.719 1.8521" xmlns="http://www.w3.org/2000/svg">
 <g transform="matrix(1.1561 0 0 .96994 -44.947 -44.662)">
  <path d="m39.034 47.926c-0.1558-0.10945-0.20377-0.28579-0.1067-0.39227 0.31381-0.34423 1.6222-0.63554 3.955-0.88058 3.0531-0.3207 7.5718-0.52799 12.971-0.59503 0.92114-0.01144 3.6363-0.01616 4.5711-8e-3 3.368 0.02957 6.0286 0.12347 7.7895 0.2749 0.57118 0.04912 1.1522 0.11899 1.4362 0.17272l0.12175 0.02303-3.7148 0.60053-0.54141-0.03794c-3.3781-0.23673-7.4738-0.32807-11.965-0.26686-5.4539 0.07434-10.621 0.37305-13.038 0.75374-0.72786 0.11464-1.168 0.22555-1.3691 0.34497l-0.06788 0.0403z" stroke-width=".011725"/>
 </g>
</svg>
